<?xml version="1.0" encoding="utf-8" standalone="no"?>
<!DOCTYPE svg PUBLIC "-//W3C//DTD SVG 1.1//EN"
  "http://www.w3.org/Graphics/SVG/1.1/DTD/svg11.dtd">
<svg xmlns:xlink="http://www.w3.org/1999/xlink" width="281.700375pt" height="300.69795pt" viewBox="0 0 281.700375 300.69795" xmlns="http://www.w3.org/2000/svg" version="1.1">
 <metadata>
  <rdf:RDF xmlns:dc="http://purl.org/dc/elements/1.1/" xmlns:cc="http://creativecommons.org/ns#" xmlns:rdf="http://www.w3.org/1999/02/22-rdf-syntax-ns#">
   <cc:Work>
    <dc:type rdf:resource="http://purl.org/dc/dcmitype/StillImage"/>
    <dc:date>2026-07-14T15:55:13.321617</dc:date>
    <dc:format>image/svg+xml</dc:format>
    <dc:creator>
     <cc:Agent>
      <dc:title>Matplotlib v3.10.6, https://matplotlib.org/</dc:title>
     </cc:Agent>
    </dc:creator>
   </cc:Work>
  </rdf:RDF>
 </metadata>
 <defs>
  <style type="text/css">*{stroke-linejoin: round; stroke-linecap: butt}</style>
 </defs>
 <g id="figure_1">
  <g id="patch_1">
   <path d="M 0 300.69795 
L 281.700375 300.69795 
L 281.700375 0 
L 0 0 
z
" style="fill: #ffffff"/>
  </g>
  <g id="axes_1">
   <g id="patch_2">
    <path d="M 36.63625 267.86545 
L 273.9065 267.86545 
L 273.9065 30.5952 
L 36.63625 30.5952 
z
" style="fill: #ffffff"/>
   </g>
   <g id="matplotlib.axis_1">
    <g id="xtick_1">
     <g id="line2d_1">
      <path d="M 47.421261 267.86545 
L 47.421261 30.5952 
" clip-path="url(#p105aff0ae2)" style="fill: none; stroke: #b0b0b0; stroke-opacity: 0.16; stroke-width: 0.8; stroke-linecap: square"/>
     </g>
     <g id="line2d_2">
      <defs>
       <path id="m5bf17ccb10" d="M 0 0 
L 0 3.5 
" style="stroke: #000000; stroke-width: 0.8"/>
      </defs>
      <g>
       <use xlink:href="#m5bf17ccb10" x="47.421261" y="267.86545" style="stroke: #000000; stroke-width: 0.8"/>
      </g>
     </g>
     <g id="text_1">
      <text style="font-size: 8px; font-family: 'Arial', 'Helvetica', 'DejaVu Sans', sans-serif; text-anchor: middle" x="47.421261" y="280.5917" transform="rotate(-0 47.421261 280.5917)">0.0</text>
     </g>
    </g>
    <g id="xtick_2">
     <g id="line2d_3">
      <path d="M 90.561307 267.86545 
L 90.561307 30.5952 
" clip-path="url(#p105aff0ae2)" style="fill: none; stroke: #b0b0b0; stroke-opacity: 0.16; stroke-width: 0.8; stroke-linecap: square"/>
     </g>
     <g id="line2d_4">
      <g>
       <use xlink:href="#m5bf17ccb10" x="90.561307" y="267.86545" style="stroke: #000000; stroke-width: 0.8"/>
      </g>
     </g>
     <g id="text_2">
      <text style="font-size: 8px; font-family: 'Arial', 'Helvetica', 'DejaVu Sans', sans-serif; text-anchor: middle" x="90.561307" y="280.5917" transform="rotate(-0 90.561307 280.5917)">0.2</text>
     </g>
    </g>
    <g id="xtick_3">
     <g id="line2d_5">
      <path d="M 133.701352 267.86545 
L 133.701352 30.5952 
" clip-path="url(#p105aff0ae2)" style="fill: none; stroke: #b0b0b0; stroke-opacity: 0.16; stroke-width: 0.8; stroke-linecap: square"/>
     </g>
     <g id="line2d_6">
      <g>
       <use xlink:href="#m5bf17ccb10" x="133.701352" y="267.86545" style="stroke: #000000; stroke-width: 0.8"/>
      </g>
     </g>
     <g id="text_3">
      <text style="font-size: 8px; font-family: 'Arial', 'Helvetica', 'DejaVu Sans', sans-serif; text-anchor: middle" x="133.701352" y="280.5917" transform="rotate(-0 133.701352 280.5917)">0.4</text>
     </g>
    </g>
    <g id="xtick_4">
     <g id="line2d_7">
      <path d="M 176.841398 267.86545 
L 176.841398 30.5952 
" clip-path="url(#p105aff0ae2)" style="fill: none; stroke: #b0b0b0; stroke-opacity: 0.16; stroke-width: 0.8; stroke-linecap: square"/>
     </g>
     <g id="line2d_8">
      <g>
       <use xlink:href="#m5bf17ccb10" x="176.841398" y="267.86545" style="stroke: #000000; stroke-width: 0.8"/>
      </g>
     </g>
     <g id="text_4">
      <text style="font-size: 8px; font-family: 'Arial', 'Helvetica', 'DejaVu Sans', sans-serif; text-anchor: middle" x="176.841398" y="280.5917" transform="rotate(-0 176.841398 280.5917)">0.6</text>
     </g>
    </g>
    <g id="xtick_5">
     <g id="line2d_9">
      <path d="M 219.981443 267.86545 
L 219.981443 30.5952 
" clip-path="url(#p105aff0ae2)" style="fill: none; stroke: #b0b0b0; stroke-opacity: 0.16; stroke-width: 0.8; stroke-linecap: square"/>
     </g>
     <g id="line2d_10">
      <g>
       <use xlink:href="#m5bf17ccb10" x="219.981443" y="267.86545" style="stroke: #000000; stroke-width: 0.8"/>
      </g>
     </g>
     <g id="text_5">
      <text style="font-size: 8px; font-family: 'Arial', 'Helvetica', 'DejaVu Sans', sans-serif; text-anchor: middle" x="219.981443" y="280.5917" transform="rotate(-0 219.981443 280.5917)">0.8</text>
     </g>
    </g>
    <g id="xtick_6">
     <g id="line2d_11">
      <path d="M 263.121489 267.86545 
L 263.121489 30.5952 
" clip-path="url(#p105aff0ae2)" style="fill: none; stroke: #b0b0b0; stroke-opacity: 0.16; stroke-width: 0.8; stroke-linecap: square"/>
     </g>
     <g id="line2d_12">
      <g>
       <use xlink:href="#m5bf17ccb10" x="263.121489" y="267.86545" style="stroke: #000000; stroke-width: 0.8"/>
      </g>
     </g>
     <g id="text_6">
      <text style="font-size: 8px; font-family: 'Arial', 'Helvetica', 'DejaVu Sans', sans-serif; text-anchor: middle" x="263.121489" y="280.5917" transform="rotate(-0 263.121489 280.5917)">1.0</text>
     </g>
    </g>
    <g id="text_7">
     <text style="font-size: 8px; font-family: 'Arial', 'Helvetica', 'DejaVu Sans', sans-serif; text-anchor: middle" x="155.271375" y="291.90795" transform="rotate(-0 155.271375 291.90795)">False-positive rate</text>
    </g>
   </g>
   <g id="matplotlib.axis_2">
    <g id="ytick_1">
     <g id="line2d_13">
      <path d="M 36.63625 257.080439 
L 273.9065 257.080439 
" clip-path="url(#p105aff0ae2)" style="fill: none; stroke: #b0b0b0; stroke-opacity: 0.16; stroke-width: 0.8; stroke-linecap: square"/>
     </g>
     <g id="line2d_14">
      <defs>
       <path id="m0b93aebe1f" d="M 0 0 
L -3.5 0 
" style="stroke: #000000; stroke-width: 0.8"/>
      </defs>
      <g>
       <use xlink:href="#m0b93aebe1f" x="36.63625" y="257.080439" style="stroke: #000000; stroke-width: 0.8"/>
      </g>
     </g>
     <g id="text_8">
      <text style="font-size: 8px; font-family: 'Arial', 'Helvetica', 'DejaVu Sans', sans-serif; text-anchor: end" x="29.63625" y="259.943564" transform="rotate(-0 29.63625 259.943564)">0.0</text>
     </g>
    </g>
    <g id="ytick_2">
     <g id="line2d_15">
      <path d="M 36.63625 213.940393 
L 273.9065 213.940393 
" clip-path="url(#p105aff0ae2)" style="fill: none; stroke: #b0b0b0; stroke-opacity: 0.16; stroke-width: 0.8; stroke-linecap: square"/>
     </g>
     <g id="line2d_16">
      <g>
       <use xlink:href="#m0b93aebe1f" x="36.63625" y="213.940393" style="stroke: #000000; stroke-width: 0.8"/>
      </g>
     </g>
     <g id="text_9">
      <text style="font-size: 8px; font-family: 'Arial', 'Helvetica', 'DejaVu Sans', sans-serif; text-anchor: end" x="29.63625" y="216.803518" transform="rotate(-0 29.63625 216.803518)">0.2</text>
     </g>
    </g>
    <g id="ytick_3">
     <g id="line2d_17">
      <path d="M 36.63625 170.800348 
L 273.9065 170.800348 
" clip-path="url(#p105aff0ae2)" style="fill: none; stroke: #b0b0b0; stroke-opacity: 0.16; stroke-width: 0.8; stroke-linecap: square"/>
     </g>
     <g id="line2d_18">
      <g>
       <use xlink:href="#m0b93aebe1f" x="36.63625" y="170.800348" style="stroke: #000000; stroke-width: 0.8"/>
      </g>
     </g>
     <g id="text_10">
      <text style="font-size: 8px; font-family: 'Arial', 'Helvetica', 'DejaVu Sans', sans-serif; text-anchor: end" x="29.63625" y="173.663473" transform="rotate(-0 29.63625 173.663473)">0.4</text>
     </g>
    </g>
    <g id="ytick_4">
     <g id="line2d_19">
      <path d="M 36.63625 127.660302 
L 273.9065 127.660302 
" clip-path="url(#p105aff0ae2)" style="fill: none; stroke: #b0b0b0; stroke-opacity: 0.16; stroke-width: 0.8; stroke-linecap: square"/>
     </g>
     <g id="line2d_20">
      <g>
       <use xlink:href="#m0b93aebe1f" x="36.63625" y="127.660302" style="stroke: #000000; stroke-width: 0.8"/>
      </g>
     </g>
     <g id="text_11">
      <text style="font-size: 8px; font-family: 'Arial', 'Helvetica', 'DejaVu Sans', sans-serif; text-anchor: end" x="29.63625" y="130.523427" transform="rotate(-0 29.63625 130.523427)">0.6</text>
     </g>
    </g>
    <g id="ytick_5">
     <g id="line2d_21">
      <path d="M 36.63625 84.520257 
L 273.9065 84.520257 
" clip-path="url(#p105aff0ae2)" style="fill: none; stroke: #b0b0b0; stroke-opacity: 0.16; stroke-width: 0.8; stroke-linecap: square"/>
     </g>
     <g id="line2d_22">
      <g>
       <use xlink:href="#m0b93aebe1f" x="36.63625" y="84.520257" style="stroke: #000000; stroke-width: 0.8"/>
      </g>
     </g>
     <g id="text_12">
      <text style="font-size: 8px; font-family: 'Arial', 'Helvetica', 'DejaVu Sans', sans-serif; text-anchor: end" x="29.63625" y="87.383382" transform="rotate(-0 29.63625 87.383382)">0.8</text>
     </g>
    </g>
    <g id="ytick_6">
     <g id="line2d_23">
      <path d="M 36.63625 41.380211 
L 273.9065 41.380211 
" clip-path="url(#p105aff0ae2)" style="fill: none; stroke: #b0b0b0; stroke-opacity: 0.16; stroke-width: 0.8; stroke-linecap: square"/>
     </g>
     <g id="line2d_24">
      <g>
       <use xlink:href="#m0b93aebe1f" x="36.63625" y="41.380211" style="stroke: #000000; stroke-width: 0.8"/>
      </g>
     </g>
     <g id="text_13">
      <text style="font-size: 8px; font-family: 'Arial', 'Helvetica', 'DejaVu Sans', sans-serif; text-anchor: end" x="29.63625" y="44.243336" transform="rotate(-0 29.63625 44.243336)">1.0</text>
     </g>
    </g>
    <g id="text_14">
     <text style="font-size: 8px; font-family: 'Arial', 'Helvetica', 'DejaVu Sans', sans-serif; text-anchor: middle" x="12.92625" y="149.230325" transform="rotate(-90 12.92625 149.230325)">True-positive rate</text>
    </g>
   </g>
   <g id="line2d_25">
    <path d="M 47.421261 257.080439 
L 47.981522 257.080439 
L 47.981522 255.204784 
L 48.541782 255.204784 
L 48.541782 247.702168 
L 49.102042 247.702168 
L 49.102042 243.95086 
L 49.662303 243.95086 
L 50.222563 242.075205 
L 50.222563 238.323897 
L 50.782823 236.448243 
L 51.343084 236.448243 
L 51.343084 227.069972 
L 51.903344 225.194318 
L 54.704646 225.194318 
L 54.704646 219.567356 
L 55.264906 219.567356 
L 55.264906 206.437777 
L 55.825166 206.437777 
L 55.825166 204.562122 
L 56.385427 204.562122 
L 56.385427 200.810814 
L 57.505947 200.810814 
L 57.505947 198.93516 
L 59.186728 197.059506 
L 59.746989 197.059506 
L 59.746989 195.183852 
L 61.98803 195.183852 
L 62.54829 193.308198 
L 62.54829 191.432543 
L 63.108551 191.432543 
L 63.108551 187.681235 
L 64.229071 187.681235 
L 64.229071 185.805581 
L 64.789332 185.805581 
L 64.789332 183.929927 
L 65.909852 183.929927 
L 67.030373 182.054273 
L 67.030373 178.302964 
L 68.711154 178.302964 
L 68.711154 176.42731 
L 69.831675 176.42731 
L 69.831675 174.551656 
L 70.391935 172.676002 
L 71.512456 172.676002 
L 71.512456 170.800348 
L 72.632976 170.800348 
L 72.632976 168.924694 
L 73.753497 168.924694 
L 73.753497 165.173385 
L 74.874018 165.173385 
L 74.874018 161.422077 
L 75.434278 161.422077 
L 75.434278 159.546423 
L 75.994538 159.546423 
L 75.994538 155.795115 
L 76.554799 153.91946 
L 77.115059 150.168152 
L 77.115059 140.789881 
L 77.675319 138.914227 
L 77.675319 133.287265 
L 79.916361 133.287265 
L 79.916361 131.411611 
L 81.597142 131.411611 
L 81.597142 125.784648 
L 86.079224 125.784648 
L 86.079224 122.03334 
L 86.639485 122.03334 
L 86.639485 118.282032 
L 87.760005 118.282032 
L 87.760005 116.406377 
L 88.320265 112.655069 
L 88.320265 107.028107 
L 89.440786 107.028107 
L 89.440786 105.152452 
L 90.001046 105.152452 
L 90.001046 103.276798 
L 90.561307 103.276798 
L 90.561307 101.401144 
L 91.121567 101.401144 
L 91.121567 97.649836 
L 93.362608 97.649836 
L 93.922869 95.774182 
L 93.922869 93.898528 
L 95.60365 93.898528 
L 95.60365 92.022873 
L 100.645993 92.022873 
L 101.206253 90.147219 
L 101.206253 82.644603 
L 101.766513 82.644603 
L 101.766513 80.768949 
L 102.887034 80.768949 
L 102.887034 78.893294 
L 104.567815 78.893294 
L 104.567815 71.390678 
L 105.688336 71.390678 
L 105.688336 69.515024 
L 106.248596 69.515024 
L 106.248596 65.763715 
L 106.808856 63.888061 
L 106.808856 62.012407 
L 107.369117 62.012407 
L 107.369117 58.261099 
L 108.489637 58.261099 
L 108.489637 54.50979 
L 110.170418 54.50979 
L 110.170418 52.634136 
L 110.730679 52.634136 
L 110.730679 48.882828 
L 111.290939 48.882828 
L 111.290939 47.007174 
L 111.851199 47.007174 
L 111.851199 45.13152 
L 112.97172 45.13152 
L 112.97172 43.255866 
L 113.53198 43.255866 
L 114.092241 41.380211 
L 263.121489 41.380211 
L 263.121489 41.380211 
" clip-path="url(#p105aff0ae2)" style="fill: none; stroke: #5b8ff9; stroke-width: 1.6; stroke-linecap: square"/>
   </g>
   <g id="line2d_26">
    <path d="M 47.421261 257.080439 
L 47.421261 256.170311 
L 49.061567 256.170311 
L 49.061567 252.529801 
L 50.701873 250.709546 
L 50.701873 249.799418 
L 51.522026 248.889291 
L 53.162332 248.889291 
L 53.162332 247.069036 
L 53.982485 246.158908 
L 54.802638 246.158908 
L 54.802638 245.248781 
L 55.622791 244.338653 
L 57.263097 244.338653 
L 57.263097 235.237378 
L 58.08325 235.237378 
L 58.08325 231.596867 
L 59.723556 231.596867 
L 59.723556 230.68674 
L 61.363862 227.04623 
L 62.184015 227.04623 
L 62.184015 220.675337 
L 63.004168 220.675337 
L 63.004168 218.855082 
L 63.82432 217.944954 
L 63.82432 217.034827 
L 64.644473 217.034827 
L 64.644473 208.843679 
L 65.464626 208.843679 
L 67.104932 207.023424 
L 67.925085 207.023424 
L 67.925085 206.113296 
L 68.745238 206.113296 
L 68.745238 205.203169 
L 71.205697 205.203169 
L 71.205697 203.382914 
L 72.02585 202.472786 
L 72.02585 201.562659 
L 72.846003 201.562659 
L 72.846003 200.652531 
L 73.666156 200.652531 
L 74.486309 199.742404 
L 74.486309 197.922148 
L 75.306462 197.922148 
L 76.126615 197.012021 
L 77.766921 197.012021 
L 77.766921 196.101893 
L 78.587074 196.101893 
L 78.587074 191.551256 
L 79.407227 191.551256 
L 80.22738 190.641128 
L 81.047533 190.641128 
L 81.047533 189.731001 
L 81.867685 189.731001 
L 81.867685 188.820873 
L 82.687838 188.820873 
L 82.687838 187.910746 
L 83.507991 187.910746 
L 83.507991 187.000618 
L 84.328144 186.09049 
L 85.148297 186.09049 
L 85.148297 185.180363 
L 87.608756 185.180363 
L 87.608756 184.270235 
L 90.069215 184.270235 
L 90.069215 183.360108 
L 91.709521 182.44998 
L 92.529674 182.44998 
L 92.529674 177.899343 
L 94.16998 177.899343 
L 94.16998 175.16896 
L 94.990133 175.16896 
L 94.990133 173.348705 
L 95.810286 173.348705 
L 95.810286 171.52845 
L 99.911051 171.52845 
L 99.911051 168.798067 
L 101.551356 168.798067 
L 101.551356 164.247429 
L 102.371509 163.337302 
L 103.191662 163.337302 
L 103.191662 162.427174 
L 109.752886 162.427174 
L 109.752886 155.146154 
L 110.573039 154.236026 
L 112.213345 153.325899 
L 113.033498 152.415771 
L 116.31411 152.415771 
L 116.31411 148.775261 
L 118.774568 148.775261 
L 119.594721 147.865134 
L 120.414874 147.865134 
L 121.235027 146.955006 
L 121.235027 146.044879 
L 122.05518 146.044879 
L 122.05518 144.224624 
L 122.875333 144.224624 
L 122.875333 143.314496 
L 123.695486 143.314496 
L 125.335792 141.494241 
L 125.335792 140.584113 
L 126.155945 140.584113 
L 126.155945 139.673986 
L 126.976098 138.763858 
L 126.976098 136.033476 
L 127.796251 136.033476 
L 127.796251 127.842328 
L 128.616404 127.842328 
L 129.436557 126.9322 
L 130.25671 126.9322 
L 131.076863 124.201818 
L 131.076863 119.65118 
L 133.537322 119.65118 
L 133.537322 117.830925 
L 134.357475 117.830925 
L 134.357475 116.01067 
L 135.177628 116.01067 
L 135.177628 115.100542 
L 135.997781 115.100542 
L 136.817934 114.190415 
L 136.817934 112.37016 
L 139.278392 112.37016 
L 139.278392 111.460032 
L 140.098545 111.460032 
L 140.098545 110.549904 
L 142.559004 110.549904 
L 142.559004 108.729649 
L 145.019463 108.729649 
L 145.019463 106.909394 
L 145.839616 106.909394 
L 145.839616 105.999267 
L 147.479922 105.999267 
L 147.479922 105.089139 
L 151.580687 105.089139 
L 151.580687 104.179012 
L 152.40084 104.179012 
L 152.40084 103.268884 
L 154.041146 103.268884 
L 154.041146 100.538502 
L 159.782216 100.538502 
L 160.602369 99.628374 
L 160.602369 98.718246 
L 163.062828 98.718246 
L 163.062828 97.808119 
L 164.703134 97.808119 
L 164.703134 96.897991 
L 167.983746 96.897991 
L 167.983746 95.987864 
L 169.624052 95.987864 
L 170.444205 95.077736 
L 170.444205 93.257481 
L 171.264358 92.347354 
L 171.264358 91.437226 
L 172.084511 91.437226 
L 172.084511 88.706844 
L 173.724816 88.706844 
L 173.724816 87.796716 
L 175.365122 87.796716 
L 175.365122 86.886588 
L 179.465887 86.886588 
L 179.465887 84.156206 
L 180.28604 84.156206 
L 180.28604 83.246078 
L 181.106193 83.246078 
L 182.746499 82.335951 
L 182.746499 80.515696 
L 184.386805 80.515696 
L 184.386805 79.605568 
L 193.408487 79.605568 
L 194.22864 78.695441 
L 199.149558 78.695441 
L 199.149558 77.785313 
L 200.789864 77.785313 
L 200.789864 75.965058 
L 201.610017 75.965058 
L 201.610017 74.144803 
L 203.250323 74.144803 
L 203.250323 72.324548 
L 204.890629 72.324548 
L 204.890629 71.41442 
L 205.710782 70.504293 
L 208.171241 70.504293 
L 208.171241 69.594165 
L 208.991394 68.684038 
L 215.552617 68.684038 
L 215.552617 67.77391 
L 216.37277 67.77391 
L 216.37277 66.863783 
L 218.833229 66.863783 
L 218.833229 65.953655 
L 221.293688 65.953655 
L 221.293688 64.1334 
L 223.754147 64.1334 
L 223.754147 63.223272 
L 224.5743 63.223272 
L 224.5743 62.313145 
L 225.394453 62.313145 
L 227.034759 61.403017 
L 229.495217 60.49289 
L 231.135523 60.49289 
L 231.135523 59.582762 
L 232.775829 59.582762 
L 232.775829 55.032124 
L 233.595982 54.121997 
L 233.595982 53.211869 
L 234.416135 53.211869 
L 234.416135 52.301742 
L 235.236288 52.301742 
L 235.236288 50.481487 
L 244.257971 50.481487 
L 245.078124 49.571359 
L 249.178888 49.571359 
L 249.178888 47.751104 
L 252.4595 47.751104 
L 252.4595 45.930849 
L 254.099806 45.930849 
L 254.099806 45.020722 
L 256.560265 45.020722 
L 256.560265 44.110594 
L 259.020724 44.110594 
L 259.020724 43.200466 
L 260.66103 43.200466 
L 260.66103 42.290339 
L 262.301336 42.290339 
L 263.121489 41.380211 
L 263.121489 41.380211 
" clip-path="url(#p105aff0ae2)" style="fill: none; stroke: #61b15a; stroke-width: 1.6; stroke-linecap: square"/>
   </g>
   <g id="line2d_27">
    <path d="M 47.421261 257.080439 
L 48.646831 257.080439 
L 48.646831 255.623005 
L 49.259616 255.623005 
L 49.259616 254.165571 
L 51.710755 254.165571 
L 51.710755 249.793269 
L 54.774678 249.793269 
L 56.613032 248.335835 
L 57.225817 246.878401 
L 57.838602 246.878401 
L 57.838602 243.963533 
L 62.74088 243.963533 
L 62.74088 242.506099 
L 63.353665 242.506099 
L 64.579234 239.591231 
L 65.804803 239.591231 
L 65.804803 238.133797 
L 66.417588 238.133797 
L 66.417588 235.218929 
L 68.255942 230.846627 
L 68.255942 229.389193 
L 70.094297 229.389193 
L 70.094297 225.016891 
L 70.707081 222.102023 
L 71.319866 220.644589 
L 73.771005 220.644589 
L 73.771005 217.729721 
L 74.38379 216.272288 
L 74.38379 211.899986 
L 74.996575 211.899986 
L 74.996575 206.07025 
L 75.609359 204.612816 
L 75.609359 203.155382 
L 78.060498 203.155382 
L 78.060498 201.697948 
L 81.737207 201.697948 
L 81.737207 200.240514 
L 82.962776 200.240514 
L 82.962776 198.78308 
L 83.575561 198.78308 
L 83.575561 197.325646 
L 84.188346 197.325646 
L 84.188346 194.410778 
L 84.80113 194.410778 
L 84.80113 192.953344 
L 86.639485 192.953344 
L 86.639485 191.49591 
L 87.252269 191.49591 
L 87.252269 187.123608 
L 87.865054 187.123608 
L 87.865054 184.20874 
L 90.928978 184.20874 
L 91.541762 181.293872 
L 92.154547 181.293872 
L 92.154547 179.836438 
L 93.380117 179.836438 
L 93.380117 176.92157 
L 93.992901 176.92157 
L 93.992901 174.006702 
L 95.218471 174.006702 
L 95.218471 171.091835 
L 95.831256 171.091835 
L 95.831256 168.176967 
L 97.66961 168.176967 
L 98.282394 166.719533 
L 99.507964 166.719533 
L 100.120749 165.262099 
L 100.120749 163.804665 
L 100.733533 163.804665 
L 100.733533 162.347231 
L 101.346318 160.889797 
L 103.797457 160.889797 
L 103.797457 153.602627 
L 104.410242 153.602627 
L 104.410242 150.687759 
L 106.248596 150.687759 
L 106.248596 149.230325 
L 106.861381 147.772891 
L 106.861381 146.315457 
L 107.474166 146.315457 
L 107.474166 140.485721 
L 108.699735 137.570853 
L 108.699735 136.113419 
L 109.925304 136.113419 
L 109.925304 134.655985 
L 111.763659 134.655985 
L 112.376443 133.198551 
L 112.989228 133.198551 
L 112.989228 131.741117 
L 116.665937 131.741117 
L 116.665937 130.283683 
L 117.891506 130.283683 
L 118.504291 128.826249 
L 119.117076 128.826249 
L 119.117076 127.368815 
L 119.72986 127.368815 
L 119.72986 125.911382 
L 122.793784 125.911382 
L 122.793784 122.996514 
L 124.019353 122.996514 
L 124.019353 121.53908 
L 125.244923 121.53908 
L 125.244923 120.081646 
L 128.308847 120.081646 
L 130.759986 117.166778 
L 130.759986 112.794476 
L 135.049479 112.794476 
L 135.049479 111.337042 
L 135.662263 111.337042 
L 135.662263 109.879608 
L 136.887833 109.879608 
L 138.113402 106.96474 
L 138.726187 106.96474 
L 139.338972 105.507306 
L 140.564541 105.507306 
L 141.790111 102.592438 
L 142.402896 102.592438 
L 142.402896 99.67757 
L 150.981882 99.67757 
L 150.981882 98.220136 
L 154.65859 98.220136 
L 154.65859 96.762702 
L 158.948083 96.762702 
L 158.948083 95.305268 
L 162.012007 95.305268 
L 162.012007 93.847834 
L 165.688716 93.847834 
L 165.688716 92.3904 
L 169.978209 92.3904 
L 169.978209 90.932966 
L 171.816563 90.932966 
L 171.816563 89.475532 
L 174.880487 89.475532 
L 174.880487 86.560664 
L 182.233903 86.560664 
L 182.233903 85.10323 
L 184.072258 85.10323 
L 184.072258 82.188362 
L 186.523397 82.188362 
L 186.523397 80.730929 
L 188.974536 80.730929 
L 188.974536 79.273495 
L 193.876813 79.273495 
L 193.876813 77.816061 
L 194.489598 77.816061 
L 194.489598 76.358627 
L 203.681369 76.358627 
L 203.681369 74.901193 
L 205.519723 74.901193 
L 205.519723 73.443759 
L 206.132508 73.443759 
L 206.132508 71.986325 
L 208.583647 71.986325 
L 209.196432 70.528891 
L 212.87314 70.528891 
L 214.09871 69.071457 
L 216.549849 69.071457 
L 216.549849 66.156589 
L 218.388203 66.156589 
L 219.613772 64.699155 
L 219.613772 63.241721 
L 222.677696 63.241721 
L 222.677696 61.784287 
L 226.354404 61.784287 
L 226.354404 58.869419 
L 226.967189 58.869419 
L 226.967189 57.411985 
L 231.869467 57.411985 
L 232.482252 55.954551 
L 234.933391 55.954551 
L 234.933391 54.497117 
L 241.061238 54.497117 
L 241.061238 53.039683 
L 242.899592 53.039683 
L 242.899592 50.124815 
L 244.125162 50.124815 
L 245.350731 47.209947 
L 250.253009 47.209947 
L 250.253009 45.752513 
L 251.478579 45.752513 
L 251.478579 44.295079 
L 255.155287 44.295079 
L 255.768072 42.837645 
L 263.121489 42.837645 
L 263.121489 41.380211 
L 263.121489 41.380211 
" clip-path="url(#p105aff0ae2)" style="fill: none; stroke: #d95f59; stroke-width: 1.6; stroke-linecap: square"/>
   </g>
   <g id="line2d_28">
    <path d="M 47.421261 257.080439 
L 263.121489 41.380211 
" clip-path="url(#p105aff0ae2)" style="fill: none; stroke-dasharray: 3.7,1.6; stroke-dashoffset: 0; stroke: #777777"/>
   </g>
   <g id="patch_3">
    <path d="M 36.63625 267.86545 
L 36.63625 30.5952 
" style="fill: none; stroke: #000000; stroke-width: 0.8; stroke-linejoin: miter; stroke-linecap: square"/>
   </g>
   <g id="patch_4">
    <path d="M 36.63625 267.86545 
L 273.9065 267.86545 
" style="fill: none; stroke: #000000; stroke-width: 0.8; stroke-linejoin: miter; stroke-linecap: square"/>
   </g>
   <g id="text_15">
    <text style="font-weight: 700; font-size: 9.6px; font-family: 'Arial', 'Helvetica', 'DejaVu Sans', sans-serif" transform="translate(109.405875 14.1885)">EXIF-only OOF ROC</text>
    <text style="font-weight: 700; font-size: 9.6px; font-family: 'Arial', 'Helvetica', 'DejaVu Sans', sans-serif" transform="translate(36.042375 24.5952)">random_forest_shallow / E1_four_core_transformed</text>
   </g>
   <g id="legend_1">
    <g id="line2d_29">
     <path d="M 189.214625 238.776325 
L 196.014625 238.776325 
L 202.814625 238.776325 
" style="fill: none; stroke: #5b8ff9; stroke-width: 1.6; stroke-linecap: square"/>
    </g>
    <g id="text_16">
     <text style="font-size: 6.8px; font-family: 'Arial', 'Helvetica', 'DejaVu Sans', sans-serif; text-anchor: start" x="208.254625" y="241.156325" transform="rotate(-0 208.254625 241.156325)">normal: AUC=0.860</text>
    </g>
    <g id="line2d_30">
     <path d="M 189.214625 248.395137 
L 196.014625 248.395137 
L 202.814625 248.395137 
" style="fill: none; stroke: #61b15a; stroke-width: 1.6; stroke-linecap: square"/>
    </g>
    <g id="text_17">
     <text style="font-size: 6.8px; font-family: 'Arial', 'Helvetica', 'DejaVu Sans', sans-serif; text-anchor: start" x="208.254625" y="250.775137" transform="rotate(-0 208.254625 250.775137)">mild: AUC=0.638</text>
    </g>
    <g id="line2d_31">
     <path d="M 189.214625 258.01395 
L 196.014625 258.01395 
L 202.814625 258.01395 
" style="fill: none; stroke: #d95f59; stroke-width: 1.6; stroke-linecap: square"/>
    </g>
    <g id="text_18">
     <text style="font-size: 6.8px; font-family: 'Arial', 'Helvetica', 'DejaVu Sans', sans-serif; text-anchor: start" x="208.254625" y="260.39395" transform="rotate(-0 208.254625 260.39395)">severe: AUC=0.643</text>
    </g>
   </g>
  </g>
 </g>
 <defs>
  <clipPath id="p105aff0ae2">
   <rect x="36.63625" y="30.5952" width="237.27025" height="237.27025"/>
  </clipPath>
 </defs>
</svg>
